<svg xmlns="http://www.w3.org/2000/svg" viewBox="0 0 524.11 252.28"><g id="Capa_2" data-name="Capa 2"><g id="Capa_1-2" data-name="Capa 1"><path d="M330.56,49.41H319.29L327.42,36,305.85.05,262.78,0l-8.32,13.76-6.1-10.14L205.3,3.57,183.63,39.41,205.2,75.32,248.94,75l9.81-16.16h0a2.25,2.25,0,0,0,0-2.32L246.37,35.85,265.32,4.5l38,0L322.16,36l-19,31.36-24.95.25a2.23,2.23,0,0,0-1.87,1h0L265.81,85.17,287.4,121.1l43.06.05,21.67-35.84ZM254.2,57.63l-7.81,12.86-38.66.31L188.88,39.42l19-31.35,38,0,6,10L241.11,35.84Zm73.73,59-38-.05L271.1,85.24,279.51,72l26.25-.26,10.81-17.89,11.44,0,18.87,31.4Z"/><path d="M262.65,133.18l-36.88,0-18.89-31.42,11-18.18L214,81.22,193,116l16,26.67L204,169.54l22.23-17.66h30.95l20.1-35.16-3.91-2.23Zm-52,25.32,1.9-10.06,2.06,3.44H219Zm43.91-11.12H225.45l-7.9-.3-4.27-6.1-15-25,6-9.9,19,31.56,36.86,0Z"/><polygon points="70.6 250.29 81.97 250.29 68.57 179.29 64 179.29 41.59 233.18 18.72 179.29 14.17 179.29 0 250.28 10.87 250.3 18.62 202.5 38.89 252.08 42.77 252.12 63.49 202.77 70.6 250.29"/><rect x="93.67" y="181.18" width="10.36" height="69.1"/><polygon points="119.25 250.29 159.02 250.29 159.02 240.82 129.8 240.82 129.8 217.31 159.02 217.31 159.02 208.2 129.8 208.2 129.8 190.65 159.02 190.65 159.02 181.18 119.25 181.18 119.25 250.29"/><polygon points="208.23 240.82 182.74 240.82 182.74 181.18 171.92 181.18 171.92 250.29 208.23 250.29 208.23 240.82"/><path d="M264.37,241.62h0V219.2H276.6a11.51,11.51,0,0,1,3.67.63,15.5,15.5,0,0,1,3.43,1.63,10.82,10.82,0,0,1,4.3,8.87,11.13,11.13,0,0,1-2.64,7.41,10.58,10.58,0,0,1-7.09,3.71Zm18.49-34.55h0a10.92,10.92,0,0,1-6.72,3.39H264.37V190.29h9A14.05,14.05,0,0,1,281,192.4a9.16,9.16,0,0,1,4.11,5.7c0,.27,0,.62.09,1.07a8.2,8.2,0,0,1,.09,1.11A9.71,9.71,0,0,1,282.86,207.07ZM288,213.3a14.1,14.1,0,0,0,5.61-5.36,16.13,16.13,0,0,0,2.39-8.3,17.42,17.42,0,0,0-5.66-12.75,18.78,18.78,0,0,0-13.55-5.52l-22.61-.29v69.11h26a33.56,33.56,0,0,0,5.7-1.45,27.65,27.65,0,0,0,5.24-2.47,18.53,18.53,0,0,0,5.81-7,20.77,20.77,0,0,0,1.93-8.89,19.2,19.2,0,0,0-3.72-11.53A15.62,15.62,0,0,0,288,213.3Z"/><path d="M341.65,221.12H322.13l9.6-24.7Zm-11.4-41.92-31.33,71h11.39l8.86-20.78h26.05l8.84,20.78h12.17l-32.3-71Z"/><polygon points="383.89 233.87 364.04 181.09 352.07 181.09 381.56 252.28 385.58 252.28 415.26 181.09 403.57 181.09 383.89 233.87"/><rect x="424.8" y="181.09" width="10.36" height="69.1"/><path d="M513.29,215h0a26.38,26.38,0,0,1-7.9,19.12,26.12,26.12,0,0,1-19.27,8,28.34,28.34,0,0,1-19.92-7.63A24.45,24.45,0,0,1,458,215.87a26.5,26.5,0,0,1,7.89-19.22,26.17,26.17,0,0,1,19.28-8,28.33,28.33,0,0,1,19.87,7.67A24.55,24.55,0,0,1,513.29,215m-.7-25.4a39.67,39.67,0,0,0-27.4-10.37A37.39,37.39,0,0,0,458.31,190a35.14,35.14,0,0,0-11.12,26.09,33.3,33.3,0,0,0,11.53,25.58A39.64,39.64,0,0,0,486.12,252,37.37,37.37,0,0,0,513,241.24a35.14,35.14,0,0,0,11.12-26.09A33.29,33.29,0,0,0,512.59,189.57Z"/></g></g></svg>